<svg width="512" height="512" viewBox="0 0 512 512" fill="none" xmlns="http://www.w3.org/2000/svg">
<rect x="106" y="106" width="300" height="300" rx="150" fill="white"/>
<path d="M322.902 237.117C326.85 248.971 326.262 262.329 324.162 273.674C322.062 285.02 315.343 297.206 311.983 301.828C308.624 306.45 305.264 311.072 296.445 318.636C287.626 326.199 270.828 332.502 264.949 333.763C260.913 334.629 254.694 335.297 251.195 335.629C249.562 335.784 247.92 335.864 246.278 335.864H203.636L205.379 320.107L192.973 320.031L189.987 346.999L250.208 346.747C254.555 346.697 261.745 345.789 265.999 344.898C301.489 337.444 315.65 316.064 323.112 306.24C327.333 300.681 330.969 292.184 333.456 285.411C336.143 278.091 337.739 270.418 338.201 262.631C338.512 257.417 338.411 251.236 337.903 245.521C336.135 225.561 325.216 207.493 304.219 196.567C293.636 191.063 284.09 188.752 276.922 187.743C274.469 187.399 266.57 186.903 264.096 186.903H209.309L195.241 304.349H207.42L220.438 197.618L266.427 198C271.954 198.047 277.463 198.761 282.784 200.244C282.784 200.244 313.247 208.123 322.906 237.117H322.902Z" fill="#3655A0"/>
<path d="M170.04 329.982L190.617 164.003H227.901C227.901 164.003 268.968 163.767 283.427 167.784C298.545 171.986 316.603 179.97 330.042 198.039C330.042 198.039 337.601 209.804 340.96 223.671C340.96 223.671 333.401 203.501 319.543 192.576C306.919 182.622 284.267 177.449 270.828 176.188C253.262 174.541 202.796 175.348 202.796 175.348L185.158 319.897C185.158 319.897 221.274 320.738 229.673 319.057C233.873 318.216 272.928 313.594 296.865 278.717C296.865 278.717 277.128 316.536 229.253 326.62C229.253 326.62 216.067 329.142 202.502 329.982C188.938 330.822 170.04 329.982 170.04 329.982Z" fill="#E1AB3F"/>
</svg>
