<svg width="96" height="36" viewBox="0 0 96 36" fill="none" xmlns="http://www.w3.org/2000/svg">
<path d="M38.3315 14.1135H40.6592C43.5905 14.1135 45.1057 16.3553 44.527 19.0525C43.9972 21.5779 42.4332 23.0435 39.6863 23.0435H36.4104L38.3315 14.1135ZM40.0806 20.6173C41.1767 20.6173 41.7066 19.8783 41.9405 18.7574C42.2116 17.4638 41.8545 16.5404 40.5733 16.5404H40.4501L39.5879 20.6173H40.0806Z" fill="#3D4095"/>
<path d="M46.6447 14.1135H49.2932L47.3721 23.0435H44.7236L46.6447 14.1135Z" fill="#3D4095"/>
<path d="M54.2687 22.1937H51.5838L51.0539 23.0435H48.0483L54.2712 14.0944H54.8506L57.2867 23.0435H54.4043L54.2687 22.1937ZM53.9488 20.2478L53.7025 18.745L52.7791 20.2478H53.9496H53.9488Z" fill="#3D4095"/>
<path d="M60.7073 14.0944L63.1988 18.7326L67.8816 14.0944H68.3156L67.0789 23.0435H64.5908L65.0215 20.1247L62.4598 22.8095L61.0925 19.8411L60.2179 23.0435H57.7174L60.2956 14.0944" fill="#3D4095"/>
<path d="M68.9504 17.9812C69.4926 15.4559 71.3889 13.9291 73.963 13.9291C76.7099 13.9291 78.7293 16.4784 78.1631 19.1765C77.6208 21.7019 75.737 23.2286 73.1744 23.2286C70.4152 23.2286 68.3709 20.6793 68.9495 17.9812H68.9504ZM75.5642 18.8806C75.8477 17.5869 74.9856 16.4297 73.7167 16.4297C72.633 16.4297 71.7956 17.1439 71.5493 18.2648C71.2657 19.57 72.1403 20.7281 73.4092 20.7281C74.4929 20.7281 75.3311 20.0015 75.565 18.8806H75.5642Z" fill="#3D4095"/>
<path d="M80.7537 14.0944L84.5802 18.2276L85.4672 14.1134H88.0661L86.164 23.0212H85.5349L81.7474 18.9302L80.8604 23.0443H78.2615L80.1726 14.0953" fill="#3D4095"/>
<path d="M89.2971 14.1135H91.6248C94.556 14.1135 96.0712 16.3553 95.4926 19.0525C94.9627 21.5779 93.3988 23.0435 90.6519 23.0435H87.376L89.2971 14.1135ZM91.0462 20.6173C92.1423 20.6173 92.6722 19.8783 92.9061 18.7574C93.1772 17.4638 92.8201 16.5404 91.5389 16.5404H91.4157L90.5535 20.6173H91.0462Z" fill="#3D4095"/>
<path d="M42.51 25.0712H43.6111C44.1666 25.0712 44.5633 25.1307 44.8163 25.2745C45.3916 25.6068 45.6991 26.197 45.6991 26.9807C45.6991 27.7643 45.4164 28.3297 44.8609 28.672C44.5485 28.8654 44.1021 28.915 43.492 28.915H42.51V25.0712ZM43.5168 28.4091C44.0128 28.4091 44.3451 28.3446 44.4889 28.2653C44.9204 28.0222 45.1288 27.6007 45.1288 26.9856C45.1288 26.3706 44.9056 25.954 44.5038 25.7209C44.3253 25.6168 43.993 25.5771 43.5069 25.5771H43.0605V28.4091H43.5168Z" fill="#EFB730"/>
<path d="M46.2347 27.4568C46.2347 26.4996 46.7158 25.9193 47.44 25.9193C48.1641 25.9193 48.6501 26.4996 48.6501 27.4568C48.6501 28.4141 48.1641 28.9944 47.44 28.9944C46.7158 28.9944 46.2347 28.4141 46.2347 27.4568ZM48.0897 27.4519C48.0897 26.7773 47.8169 26.3905 47.4449 26.3905C47.0729 26.3905 46.8002 26.7773 46.8002 27.4519C46.8002 28.1264 47.068 28.5133 47.44 28.5133C47.8119 28.5133 48.0897 28.1264 48.0897 27.4519Z" fill="#EFB730"/>
<path d="M49.2651 25.9987H49.7562C49.7462 26.2615 49.7264 26.5145 49.6966 26.7575C49.8603 26.2318 50.1728 25.959 50.5795 25.959C50.9415 25.959 51.2044 26.1673 51.3135 26.5492C51.5367 26.1475 51.7896 25.959 52.1368 25.959C52.6179 25.959 52.9155 26.321 52.9155 26.9757V28.915H52.3749V27.0997C52.3749 26.6583 52.2559 26.45 51.9533 26.45C51.621 26.45 51.3581 26.817 51.3581 27.4915V28.915H50.8225V27.0997C50.8225 26.6583 50.6985 26.45 50.396 26.45C50.0637 26.45 49.8057 26.817 49.8057 27.4915V28.915H49.2651V25.9987Z" fill="#EFB730"/>
<path d="M54.0166 25.7209C53.7637 25.7209 53.605 25.5721 53.605 25.3638C53.605 25.1555 53.7637 25.0117 54.0166 25.0117C54.2696 25.0117 54.4333 25.1555 54.4333 25.3638C54.4333 25.5721 54.2696 25.7209 54.0166 25.7209ZM53.7488 26.0929H54.2894V28.915H53.7488V26.0929Z" fill="#EFB730"/>
<path d="M56.7693 27.0997C56.7693 26.6583 56.6403 26.445 56.3328 26.445C55.9559 26.445 55.6732 26.822 55.6732 27.4915V28.915H55.1326V25.9987H55.6236C55.6137 26.2615 55.5938 26.5145 55.5641 26.7575C55.7426 26.2318 56.065 25.959 56.4965 25.959C57.0123 25.959 57.3099 26.3161 57.3099 26.9757V28.915H56.7693V27.0997Z" fill="#EFB730"/>
<path d="M58.4059 25.7209C58.153 25.7209 57.9943 25.5721 57.9943 25.3638C57.9943 25.1555 58.153 25.0117 58.4059 25.0117C58.6589 25.0117 58.8225 25.1555 58.8225 25.3638C58.8225 25.5721 58.6589 25.7209 58.4059 25.7209ZM58.1381 26.0929H58.6787V28.915H58.1381V26.0929Z" fill="#EFB730"/>
<path d="M60.7321 28.9993C59.8295 28.9993 59.2789 28.4041 59.2789 27.4568C59.2789 26.5095 59.8394 25.9143 60.6925 25.9143C61.0148 25.9143 61.3025 25.9937 61.5207 26.1326V26.7029C61.3025 26.4946 61.0347 26.3905 60.7371 26.3905C60.1816 26.3905 59.8394 26.7873 59.8394 27.4519C59.8394 28.1165 60.1965 28.5281 60.7768 28.5281C61.0644 28.5281 61.2926 28.419 61.5207 28.2008V28.8009C61.3471 28.9249 61.0744 28.9993 60.7321 28.9993Z" fill="#EFB730"/>
<path d="M63.7972 28.2702C63.6237 28.7464 63.3211 28.9943 62.9491 28.9943C62.3341 28.9943 61.8927 28.4289 61.8927 27.4866C61.8927 26.5442 62.344 25.9739 62.9491 25.9739C63.3062 25.9739 63.5939 26.1772 63.7576 26.5542C63.7179 26.3806 63.6931 26.1971 63.6881 25.9987H64.2287V28.915H63.7328C63.7427 28.7067 63.7625 28.4934 63.7972 28.2702ZM63.703 27.5114C63.703 26.8716 63.4401 26.5046 63.0781 26.5046C62.716 26.5046 62.4432 26.8716 62.4432 27.5114C62.4432 28.1512 62.7061 28.5232 63.0682 28.5232C63.4302 28.5232 63.703 28.1512 63.703 27.5114Z" fill="#EFB730"/>
<path d="M66.7185 27.0997C66.7185 26.6583 66.5896 26.445 66.282 26.445C65.9051 26.445 65.6224 26.822 65.6224 27.4915V28.915H65.0818V25.9987H65.5728C65.5629 26.2615 65.543 26.5145 65.5133 26.7575C65.6918 26.2318 66.0142 25.959 66.4457 25.959C66.9615 25.959 67.2591 26.3161 67.2591 26.9757V28.915H66.7185V27.0997Z" fill="#EFB730"/>
<path d="M71.0483 28.915H70.4978V25.5771H69.2777V25.0712H72.2635V25.5771H71.0483V28.915Z" fill="#EFB730"/>
<path d="M72.5115 25.9987H73.0322C73.0273 26.2566 73.0075 26.5095 72.9827 26.7575C73.1761 26.2169 73.4191 25.959 73.7564 25.959C73.8456 25.959 73.9399 25.9838 74.049 26.0235L73.925 26.6286C73.8357 26.5839 73.7564 26.5591 73.6721 26.5591C73.315 26.5591 73.0521 26.9261 73.0521 27.6007V28.915H72.5115V25.9987Z" fill="#EFB730"/>
<path d="M76.0172 28.2702C75.8436 28.7464 75.5411 28.9943 75.1691 28.9943C74.5541 28.9943 74.1127 28.4289 74.1127 27.4866C74.1127 26.5442 74.564 25.9739 75.1691 25.9739C75.5262 25.9739 75.8139 26.1772 75.9775 26.5542C75.9379 26.3806 75.9131 26.1971 75.9081 25.9987H76.4487V28.915H75.9527C75.9627 28.7067 75.9825 28.4934 76.0172 28.2702ZM75.923 27.5114C75.923 26.8716 75.6601 26.5046 75.2981 26.5046C74.936 26.5046 74.6632 26.8716 74.6632 27.5114C74.6632 28.1512 74.9261 28.5232 75.2881 28.5232C75.6502 28.5232 75.923 28.1512 75.923 27.5114Z" fill="#EFB730"/>
<path d="M78.9393 27.0997C78.9393 26.6583 78.8104 26.445 78.5029 26.445C78.1259 26.445 77.8432 26.822 77.8432 27.4915V28.915H77.3026V25.9987H77.7936C77.7837 26.2615 77.7639 26.5145 77.7341 26.7575C77.9127 26.2318 78.235 25.959 78.6665 25.959C79.1824 25.959 79.4799 26.3161 79.4799 26.9757V28.915H78.9393V27.0997Z" fill="#EFB730"/>
<path d="M81.0761 26.3607C80.8182 26.3607 80.6446 26.5145 80.6446 26.703C80.6446 26.8765 80.7637 26.9757 81.0017 27.0551C81.3191 27.1592 81.5572 27.2336 81.701 27.313C82.0532 27.5064 82.2169 27.6999 82.2169 28.0818C82.2169 28.6224 81.8201 28.9944 81.1902 28.9944C80.7289 28.9944 80.347 28.8108 80.0643 28.4488L80.4413 28.1165C80.6397 28.3942 80.9075 28.5381 81.2001 28.5381C81.5225 28.5381 81.7258 28.3645 81.7258 28.1363C81.7258 27.9379 81.587 27.8139 81.2943 27.7147C80.962 27.6007 80.7141 27.5362 80.5801 27.4519C80.2925 27.2733 80.1586 27.0849 80.1586 26.7773C80.1586 26.2814 80.5454 25.9193 81.091 25.9193C81.5175 25.9193 81.8647 26.0929 82.1028 26.4202L81.7308 26.7426C81.5324 26.4847 81.3291 26.3607 81.0761 26.3607Z" fill="#EFB730"/>
<path d="M84.2156 25.5473C84.1115 25.4828 84.0073 25.4531 83.9081 25.4531C83.68 25.4531 83.551 25.582 83.551 25.8102V26.2764H84.1561V26.6881H83.551V28.915H83.0005V26.6881H82.5045V26.2764H83.0005V25.8647C83.0005 25.2894 83.2435 25.0117 83.7841 25.0117C83.9379 25.0117 84.0768 25.0365 84.2156 25.0811V25.5473Z" fill="#EFB730"/>
<path d="M85.5847 28.9944C84.8209 28.9944 84.3447 28.424 84.3447 27.4568C84.3447 26.4897 84.8258 25.9193 85.5549 25.9193C86.284 25.9193 86.7601 26.4897 86.7601 27.4965V27.5461H84.8903V27.6106C84.8903 28.181 85.2077 28.5381 85.5896 28.5381C85.8624 28.5381 86.0608 28.4041 86.2493 28.1115L86.6312 28.3843C86.3683 28.8009 86.036 28.9944 85.5847 28.9944ZM86.2493 27.184C86.1997 26.6434 85.9517 26.3558 85.5698 26.3558C85.1879 26.3558 84.9349 26.6434 84.8853 27.184H86.2493Z" fill="#EFB730"/>
<path d="M87.365 25.9987H87.8858C87.8808 26.2566 87.861 26.5095 87.8362 26.7575C88.0296 26.2169 88.2726 25.959 88.6099 25.959C88.6992 25.959 88.7934 25.9838 88.9025 26.0235L88.7785 26.6286C88.6892 26.5839 88.6099 26.5591 88.5256 26.5591C88.1685 26.5591 87.9056 26.9261 87.9056 27.6007V28.915H87.365V25.9987Z" fill="#EFB730"/>
<path d="M30.0892 14.3838C30.8662 16.7157 30.7505 19.3435 30.3372 21.5754C29.9239 23.8073 28.6013 26.2045 27.94 27.1138C27.2787 28.0231 26.6174 28.9324 24.8814 30.4203C23.1455 31.9082 19.839 33.1482 18.6818 33.3961C17.8874 33.5664 16.6631 33.6979 15.9746 33.7632C15.653 33.7937 15.3298 33.8095 15.0066 33.8095H6.61304L6.95609 30.7096L4.51424 30.6947L3.92651 36L15.7803 35.9504C16.6359 35.9405 18.051 35.7619 18.8884 35.5867C25.8742 34.1203 28.6616 29.9144 30.1305 27.9817C30.9613 26.8881 31.6771 25.2167 32.1665 23.8842C32.6955 22.4442 33.0096 20.9348 33.1006 19.403C33.1617 18.3772 33.1419 17.1612 33.0419 16.037C32.6939 12.1106 30.5446 8.55607 26.4115 6.40685C24.3284 5.32397 22.4495 4.86933 21.0385 4.67094C20.5557 4.60316 19.0008 4.50562 18.514 4.50562H7.72981L4.96062 27.6098H7.35783L9.92037 6.61351L18.9727 6.68873C20.0606 6.69782 21.1451 6.83835 22.1924 7.13015C22.1924 7.13015 28.1888 8.68007 30.09 14.3838H30.0892Z" fill="#3F4192"/>
<path d="M0 32.6522L4.05046 0.000509085H11.3892C11.3892 0.000509085 19.4728 -0.0457819 22.3189 0.744471C25.2947 1.5711 28.8492 3.14168 31.4944 6.69617C31.4944 6.69617 32.9823 9.01072 33.6436 11.7386C33.6436 11.7386 32.1557 7.77078 29.4278 5.62155C26.943 3.66328 22.4842 2.64571 19.839 2.39772C16.3812 2.07368 6.44767 2.23239 6.44767 2.23239L2.97585 30.6683C2.97585 30.6683 10.0848 30.8336 11.7381 30.503C12.5647 30.3376 20.2523 29.4283 24.9641 22.5674C24.9641 22.5674 21.0789 30.007 11.6554 31.9909C11.6554 31.9909 9.0598 32.4868 6.38981 32.6522C3.71981 32.8175 0 32.6522 0 32.6522Z" fill="#EFB730"/>
<path d="M48.0442 13.5299C47.7169 12.6223 47.397 11.7361 47.0704 10.8326C47.9235 10.9384 48.7601 11.0417 49.6206 11.1484C49.0957 11.9411 48.5774 12.7248 48.0442 13.5299Z" fill="#3D4095"/>
<path d="M46.5844 9.07354C46.8117 9.01485 47.0374 8.94872 47.2664 8.90078C47.3837 8.87598 47.5102 8.86854 47.6292 8.88259C48.2881 8.95864 48.9461 9.04626 49.6049 9.12397C49.7404 9.13967 49.862 9.17852 49.9785 9.24961C50.1554 9.3579 50.3364 9.45792 50.5406 9.57613C50.4199 9.61085 50.3273 9.63813 50.2339 9.66458C50.0661 9.7117 49.8983 9.75881 49.7297 9.80262C49.695 9.81172 49.6553 9.8142 49.6198 9.81006C48.8766 9.71914 48.1327 9.62738 47.3895 9.5348C47.3622 9.53149 47.3325 9.53067 47.3102 9.51827C47.0663 9.38105 46.8241 9.24134 46.5819 9.10247C46.5827 9.09338 46.5836 9.08429 46.5844 9.07519V9.07354Z" fill="#3D4095"/>
<path d="M49.6661 10.8434C48.8023 10.7367 47.9599 10.6326 47.1044 10.5268C47.2052 10.2779 47.3036 10.0349 47.4061 9.78114C47.4582 9.78776 47.5086 9.79354 47.5582 9.80015C48.1856 9.87786 48.813 9.95804 49.4412 10.0324C49.5297 10.0432 49.5702 10.0663 49.5785 10.1655C49.5975 10.3854 49.6338 10.6036 49.6661 10.8442V10.8434Z" fill="#3D4095"/>
<path d="M45.7834 10.0936C45.881 10.1531 45.9802 10.211 46.0769 10.2721C46.3141 10.4209 46.5522 10.5689 46.787 10.7218C46.8233 10.7458 46.858 10.7871 46.8721 10.8276C47.1424 11.5981 47.4102 12.3693 47.6772 13.1414C47.6855 13.1662 47.6913 13.1926 47.6772 13.2282C47.0407 12.1891 46.4051 11.1492 45.7686 10.1101C45.7735 10.1052 45.7777 10.0994 45.7826 10.0944L45.7834 10.0936Z" fill="#3D4095"/>
<path d="M51.0523 10.7689C50.1876 11.6162 49.323 12.4644 48.4583 13.3116C48.4517 13.3075 48.4459 13.3042 48.4393 13.3001C48.4559 13.272 48.4716 13.243 48.4898 13.2158C48.9328 12.5503 49.3751 11.8841 49.8223 11.2211C49.8586 11.1674 49.9248 11.1219 49.9868 11.0996C50.3059 10.9864 50.6274 10.8822 50.9481 10.7756C50.9787 10.7656 51.011 10.759 51.0424 10.7508C51.0457 10.7565 51.049 10.7623 51.0531 10.7681L51.0523 10.7689Z" fill="#3D4095"/>
<path d="M46.882 10.5061C46.4794 10.2672 46.0951 10.0399 45.7032 9.80759C45.719 9.78527 45.7289 9.76461 45.7446 9.74973C45.9157 9.58192 46.0885 9.4166 46.2579 9.24797C46.2959 9.21077 46.324 9.20333 46.372 9.23061C46.6208 9.37361 46.8729 9.51166 47.1209 9.65467C47.1457 9.66955 47.1788 9.71584 47.1713 9.73485C47.0804 9.9878 46.9837 10.2383 46.8812 10.5069L46.882 10.5061Z" fill="#3D4095"/>
<path d="M51.1961 10.4664C50.7663 10.6045 50.3455 10.74 49.9099 10.8797C49.8653 10.5871 49.8231 10.3118 49.7793 10.0225C49.8677 10.001 49.9529 9.98119 50.038 9.96135C50.2612 9.90927 50.4844 9.85885 50.7068 9.80512C50.7663 9.79024 50.7985 9.80264 50.8308 9.85719C50.9308 10.0283 51.0382 10.1953 51.1424 10.3639C51.1598 10.392 51.173 10.4226 51.1961 10.4664Z" fill="#3D4095"/>
</svg>
