<svg width="101" height="38" viewBox="0 0 101 38" fill="none" xmlns="http://www.w3.org/2000/svg">
<path d="M40.4606 14.8976H42.9177C46.0117 14.8976 47.6111 17.264 47.0003 20.1111C46.441 22.7768 44.7902 24.3238 41.8907 24.3238H38.4328L40.4606 14.8976ZM42.3069 21.7629C43.4639 21.7629 44.0232 20.9828 44.2701 19.7996C44.5563 18.4341 44.1794 17.4595 42.8269 17.4595H42.6969L41.7869 21.7629H42.3069Z" fill="white"/>
<path d="M49.2365 14.8976H52.0321L50.0043 24.3238H47.2087L49.2365 14.8976Z" fill="white"/>
<path d="M57.2846 23.4267H54.4505L53.8912 24.3236H50.7186L57.2872 14.8774H57.8988L60.4702 24.3236H57.4277L57.2846 23.4267ZM56.946 21.3727L56.686 19.7864L55.7114 21.3727H56.9469H56.946Z" fill="white"/>
<path d="M64.0802 14.8774L66.71 19.7733L71.653 14.8774H72.1111L70.8058 24.3236H68.1794L68.634 21.2427L65.93 24.0767L64.4868 20.9434L63.5636 24.3236H60.9241L63.6456 14.8774" fill="white"/>
<path d="M72.7807 18.9804C73.3531 16.3148 75.3547 14.7032 78.0719 14.7032C80.9713 14.7032 83.103 17.3941 82.5053 20.2421C81.9329 22.9077 79.9444 24.5193 77.2394 24.5193C74.3269 24.5193 72.1691 21.8284 72.7798 18.9804H72.7807ZM79.762 19.9297C80.0613 18.5642 79.1512 17.3426 77.8118 17.3426C76.6679 17.3426 75.784 18.0965 75.524 19.2797C75.2247 20.6574 76.1479 21.8799 77.4873 21.8799C78.6312 21.8799 79.5159 21.1129 79.7629 19.9297H79.762Z" fill="white"/>
<path d="M85.2409 14.8774L89.28 19.2402L90.2162 14.8975H92.9595L90.9518 24.3001H90.2878L86.2897 19.9818L85.3535 24.3245H82.6102L84.6275 14.8783" fill="white"/>
<path d="M94.2584 14.8976H96.7155C99.8096 14.8976 101.409 17.264 100.798 20.1111C100.239 22.7768 98.588 24.3238 95.6885 24.3238H92.2306L94.2584 14.8976ZM96.1038 21.7629C97.2608 21.7629 97.8202 20.9828 98.0671 19.7996C98.3533 18.4341 97.9763 17.4595 96.6239 17.4595H96.4939L95.5838 21.7629H96.1038Z" fill="white"/>
<path d="M44.8713 26.4642H46.0335C46.6199 26.4642 47.0387 26.527 47.3057 26.6788C47.913 27.0296 48.2376 27.6526 48.2376 28.4798C48.2376 29.3069 47.9392 29.9038 47.3528 30.265C47.023 30.4692 46.5518 30.5215 45.9079 30.5215H44.8713V26.4642ZM45.934 29.9875C46.4576 29.9875 46.8083 29.9195 46.9602 29.8357C47.4156 29.5792 47.6355 29.1342 47.6355 28.485C47.6355 27.8358 47.3999 27.3961 46.9759 27.15C46.7874 27.0401 46.4366 26.9982 45.9236 26.9982H45.4524V29.9875H45.934Z" fill="white"/>
<path d="M48.8035 28.9824C48.8035 27.972 49.3114 27.3594 50.0757 27.3594C50.8401 27.3594 51.3531 27.972 51.3531 28.9824C51.3531 29.9928 50.8401 30.6053 50.0757 30.6053C49.3114 30.6053 48.8035 29.9928 48.8035 28.9824ZM50.7615 28.9771C50.7615 28.2651 50.4736 27.8568 50.0809 27.8568C49.6883 27.8568 49.4003 28.2651 49.4003 28.9771C49.4003 29.6891 49.6831 30.0975 50.0757 30.0975C50.4684 30.0975 50.7615 29.6891 50.7615 28.9771Z" fill="white"/>
<path d="M52.0027 27.4432H52.521C52.5105 27.7207 52.4895 27.9877 52.4581 28.2442C52.6309 27.6893 52.9607 27.4014 53.39 27.4014C53.7722 27.4014 54.0497 27.6212 54.1648 28.0244C54.4004 27.6003 54.6674 27.4014 55.0339 27.4014C55.5417 27.4014 55.8558 27.7835 55.8558 28.4746V30.5216H55.2852V28.6055C55.2852 28.1395 55.1595 27.9196 54.8402 27.9196C54.4894 27.9196 54.212 28.3071 54.212 29.0191V30.5216H53.6465V28.6055C53.6465 28.1395 53.5157 27.9196 53.1963 27.9196C52.8455 27.9196 52.5733 28.3071 52.5733 29.0191V30.5216H52.0027V27.4432Z" fill="white"/>
<path d="M57.0178 27.15C56.7508 27.15 56.5833 26.9929 56.5833 26.773C56.5833 26.5532 56.7508 26.4013 57.0178 26.4013C57.2848 26.4013 57.4575 26.5532 57.4575 26.773C57.4575 26.9929 57.2848 27.15 57.0178 27.15ZM56.7351 27.5426H57.3057V30.5215H56.7351V27.5426Z" fill="white"/>
<path d="M59.923 28.6055C59.923 28.1395 59.7868 27.9144 59.4623 27.9144C59.0644 27.9144 58.766 28.3123 58.766 29.0191V30.5216H58.1953V27.4432H58.7136C58.7031 27.7207 58.6822 27.9877 58.6508 28.2442C58.8393 27.6893 59.1795 27.4014 59.635 27.4014C60.1795 27.4014 60.4936 27.7783 60.4936 28.4746V30.5216H59.923V28.6055Z" fill="white"/>
<path d="M61.6511 27.15C61.3841 27.15 61.2166 26.9929 61.2166 26.773C61.2166 26.5532 61.3841 26.4013 61.6511 26.4013C61.9181 26.4013 62.0909 26.5532 62.0909 26.773C62.0909 26.9929 61.9181 27.15 61.6511 27.15ZM61.3684 27.5426H61.9391V30.5215H61.3684V27.5426Z" fill="white"/>
<path d="M64.1055 30.6104C63.1527 30.6104 62.5716 29.9822 62.5716 28.9822C62.5716 27.9823 63.1632 27.354 64.0636 27.354C64.4039 27.354 64.7076 27.4378 64.9379 27.5844V28.1865C64.7076 27.9666 64.4249 27.8566 64.1107 27.8566C63.5244 27.8566 63.1632 28.2755 63.1632 28.977C63.1632 29.6785 63.5401 30.1131 64.1526 30.1131C64.4563 30.1131 64.6971 29.9979 64.9379 29.7675V30.401C64.7547 30.5319 64.4667 30.6104 64.1055 30.6104Z" fill="white"/>
<path d="M67.3417 29.8409C67.1585 30.3435 66.8391 30.6052 66.4465 30.6052C65.7973 30.6052 65.3314 30.0084 65.3314 29.0137C65.3314 28.019 65.8078 27.4169 66.4465 27.4169C66.8234 27.4169 67.1271 27.6316 67.2998 28.0295C67.2579 27.8462 67.2318 27.6525 67.2265 27.4431H67.7972V30.5215H67.2737C67.2841 30.3016 67.3051 30.0765 67.3417 29.8409ZM67.2422 29.0399C67.2422 28.3645 66.9648 27.9771 66.5826 27.9771C66.2004 27.9771 65.9125 28.3645 65.9125 29.0399C65.9125 29.7152 66.19 30.1079 66.5721 30.1079C66.9543 30.1079 67.2422 29.7152 67.2422 29.0399Z" fill="white"/>
<path d="M70.4251 28.6055C70.4251 28.1395 70.289 27.9144 69.9644 27.9144C69.5665 27.9144 69.2681 28.3123 69.2681 29.0191V30.5216H68.6975V27.4432H69.2158C69.2053 27.7207 69.1844 27.9877 69.1529 28.2442C69.3414 27.6893 69.6817 27.4014 70.1372 27.4014C70.6817 27.4014 70.9958 27.7783 70.9958 28.4746V30.5216H70.4251V28.6055Z" fill="white"/>
<path d="M74.9962 30.5215H74.4151V26.9982H73.1272V26.4642H76.2788V26.9982H74.9962V30.5215Z" fill="white"/>
<path d="M76.5404 27.4432H77.0901C77.0848 27.7155 77.0639 27.9825 77.0377 28.2442C77.2419 27.6736 77.4984 27.4014 77.8544 27.4014C77.9487 27.4014 78.0481 27.4275 78.1633 27.4694L78.0324 28.1081C77.9382 28.061 77.8544 28.0348 77.7654 28.0348C77.3885 28.0348 77.111 28.4222 77.111 29.1342V30.5216H76.5404V27.4432Z" fill="white"/>
<path d="M80.2416 29.8409C80.0584 30.3435 79.7391 30.6052 79.3464 30.6052C78.6972 30.6052 78.2313 30.0084 78.2313 29.0137C78.2313 28.019 78.7077 27.4169 79.3464 27.4169C79.7234 27.4169 80.027 27.6316 80.1998 28.0295C80.1579 27.8462 80.1317 27.6525 80.1265 27.4431H80.6971V30.5215H80.1736C80.1841 30.3016 80.205 30.0765 80.2416 29.8409ZM80.1422 29.0399C80.1422 28.3645 79.8647 27.9771 79.4825 27.9771C79.1003 27.9771 78.8124 28.3645 78.8124 29.0399C78.8124 29.7152 79.0899 30.1079 79.4721 30.1079C79.8542 30.1079 80.1422 29.7152 80.1422 29.0399Z" fill="white"/>
<path d="M83.3257 28.6055C83.3257 28.1395 83.1896 27.9144 82.865 27.9144C82.4671 27.9144 82.1687 28.3123 82.1687 29.0191V30.5216H81.5981V27.4432H82.1164C82.1059 27.7207 82.085 27.9877 82.0536 28.2442C82.242 27.6893 82.5823 27.4014 83.0378 27.4014C83.5823 27.4014 83.8964 27.7783 83.8964 28.4746V30.5216H83.3257V28.6055Z" fill="white"/>
<path d="M85.5807 27.8254C85.3085 27.8254 85.1253 27.9877 85.1253 28.1866C85.1253 28.3699 85.2509 28.4746 85.5022 28.5583C85.8373 28.6683 86.0886 28.7468 86.2404 28.8306C86.6121 29.0347 86.7849 29.2389 86.7849 29.642C86.7849 30.2127 86.366 30.6053 85.7011 30.6053C85.2143 30.6053 84.8111 30.4116 84.5127 30.0294L84.9106 29.6787C85.12 29.9719 85.4027 30.1237 85.7116 30.1237C86.0519 30.1237 86.2666 29.9404 86.2666 29.6996C86.2666 29.4902 86.12 29.3593 85.8111 29.2546C85.4603 29.1342 85.1985 29.0661 85.0572 28.9771C84.7535 28.7887 84.6122 28.5897 84.6122 28.2651C84.6122 27.7416 85.0206 27.3594 85.5964 27.3594C86.0467 27.3594 86.4131 27.5427 86.6644 27.8882L86.2718 28.2285C86.0624 27.9563 85.8477 27.8254 85.5807 27.8254Z" fill="white"/>
<path d="M88.8958 26.9667C88.7859 26.8987 88.6759 26.8673 88.5712 26.8673C88.3304 26.8673 88.1943 27.0034 88.1943 27.2442V27.7363H88.833V28.1709H88.1943V30.5215H87.6132V28.1709H87.0896V27.7363H87.6132V27.3018C87.6132 26.6945 87.8697 26.4013 88.4403 26.4013C88.6026 26.4013 88.7492 26.4275 88.8958 26.4746V26.9667Z" fill="white"/>
<path d="M90.3396 30.6053C89.5334 30.6053 89.0308 30.0033 89.0308 28.9824C89.0308 27.9615 89.5386 27.3594 90.3082 27.3594C91.0778 27.3594 91.5804 27.9615 91.5804 29.0243V29.0766H89.6067V29.1447C89.6067 29.7467 89.9417 30.1237 90.3449 30.1237C90.6328 30.1237 90.8422 29.9823 91.0412 29.6734L91.4443 29.9614C91.1668 30.4011 90.816 30.6053 90.3396 30.6053ZM91.0403 28.6944C90.9879 28.1238 90.7262 27.8201 90.323 27.8201C89.9199 27.8201 89.6529 28.1238 89.6006 28.6944H91.0403Z" fill="white"/>
<path d="M92.2204 27.4432H92.7701C92.7649 27.7155 92.744 27.9825 92.7178 28.2442C92.922 27.6736 93.1785 27.4014 93.5345 27.4014C93.6287 27.4014 93.7282 27.4275 93.8434 27.4694L93.7125 28.1081C93.6183 28.061 93.5345 28.0348 93.4455 28.0348C93.0685 28.0348 92.7911 28.4222 92.7911 29.1342V30.5216H92.2204V27.4432Z" fill="white"/>
<path d="M31.7603 15.1828C32.5805 17.6443 32.4584 20.4181 32.0221 22.774C31.5858 25.1299 30.1897 27.6603 29.4917 28.6201C28.7936 29.5799 28.0956 30.5397 26.2632 32.1103C24.4309 33.6809 20.9407 34.9897 19.7191 35.2515C18.8806 35.4312 17.5884 35.5699 16.8615 35.6389C16.5221 35.6712 16.1809 35.6877 15.8398 35.6877H6.97989L7.342 32.4157L4.76449 32.4L4.1441 38L16.6565 37.9477C17.5596 37.9372 19.0534 37.7487 19.9373 37.5637C27.3112 36.0158 30.2534 31.5763 31.8039 29.5363C32.6809 28.3819 33.4365 26.6176 33.953 25.211C34.5115 23.691 34.843 22.0978 34.939 20.4809C35.0036 19.3981 34.9826 18.1146 34.8771 16.9279C34.5097 12.7833 32.2411 9.03133 27.8783 6.76269C25.6795 5.61965 23.6962 5.13975 22.2068 4.93034C21.6972 4.85879 20.0559 4.75583 19.542 4.75583H8.15871L5.23566 29.1436H7.76606L10.471 6.98083L20.0263 7.06024C21.1745 7.06983 22.3193 7.21817 23.4248 7.52618C23.4248 7.52618 29.7543 9.16221 31.7612 15.1828H31.7603Z" fill="white"/>
<path d="M0 34.4663L4.2755 0.00053737H12.022C12.022 0.00053737 20.5547 -0.0483255 23.5589 0.785833C26.7 1.65838 30.452 3.31623 33.2442 7.0682C33.2442 7.0682 34.8148 9.51134 35.5128 12.3908C35.5128 12.3908 33.9422 8.20251 31.0628 5.93388C28.4399 3.86681 23.7334 2.7927 20.9412 2.53093C17.2913 2.18889 6.80589 2.35642 6.80589 2.35642L3.14118 32.3722C3.14118 32.3722 10.6451 32.5467 12.3902 32.1977C13.2628 32.0231 21.3775 31.0633 26.351 23.8212C26.351 23.8212 22.25 31.6741 12.303 33.7682C12.303 33.7682 9.56315 34.2918 6.74481 34.4663C3.92648 34.6408 0 34.4663 0 34.4663Z" fill="white"/>
<path d="M50.7127 14.2816C50.3672 13.3235 50.0295 12.3881 49.6849 11.4344C50.5853 11.5461 51.4684 11.6552 52.3767 11.7677C51.8226 12.6045 51.2755 13.4317 50.7127 14.2816Z" fill="white"/>
<path d="M49.1735 9.5778C49.4134 9.51585 49.6516 9.44604 49.8933 9.39544C50.0172 9.36926 50.1507 9.36141 50.2764 9.37624C50.9718 9.45651 51.6664 9.549 52.3618 9.63102C52.5049 9.6476 52.6331 9.68861 52.7562 9.76365C52.9429 9.87796 53.134 9.98353 53.3495 10.1083C53.2221 10.145 53.1244 10.1737 53.0258 10.2017C52.8487 10.2514 52.6715 10.3011 52.4935 10.3474C52.4569 10.357 52.415 10.3596 52.3775 10.3552C51.5931 10.2593 50.8078 10.1624 50.0233 10.0647C49.9946 10.0612 49.9631 10.0603 49.9396 10.0472C49.6822 9.90239 49.4265 9.75492 49.1709 9.60834C49.1717 9.59874 49.1726 9.58914 49.1735 9.57954V9.5778Z" fill="white"/>
<path d="M52.426 11.4457C51.5142 11.3332 50.6251 11.2232 49.722 11.1115C49.8284 10.8489 49.9323 10.5924 50.0405 10.3245C50.0954 10.3315 50.1487 10.3376 50.201 10.3446C50.8633 10.4266 51.5255 10.5112 52.1887 10.5897C52.282 10.6011 52.3248 10.6255 52.3335 10.7302C52.3536 10.9623 52.392 11.1927 52.426 11.4466V11.4457Z" fill="white"/>
<path d="M48.3275 10.6543C48.4305 10.7171 48.5352 10.7782 48.6373 10.8427C48.8877 10.9998 49.139 11.156 49.3868 11.3174C49.4252 11.3427 49.4618 11.3863 49.4767 11.4291C49.762 12.2423 50.0447 13.0564 50.3265 13.8714C50.3353 13.8975 50.3414 13.9255 50.3265 13.963C49.6547 12.8662 48.9837 11.7685 48.3118 10.6717C48.3171 10.6665 48.3214 10.6604 48.3267 10.6551L48.3275 10.6543Z" fill="white"/>
<path d="M53.8894 11.3672C52.9767 12.2615 52.064 13.1568 51.1513 14.0511C51.1443 14.0468 51.1382 14.0433 51.1313 14.0389C51.1487 14.0092 51.1653 13.9787 51.1845 13.9499C51.6522 13.2475 52.119 12.5442 52.591 11.8444C52.6294 11.7877 52.6992 11.7397 52.7647 11.7162C53.1015 11.5966 53.4409 11.4867 53.7794 11.3741C53.8117 11.3637 53.8458 11.3567 53.8789 11.348C53.8824 11.3541 53.8859 11.3602 53.8903 11.3663L53.8894 11.3672Z" fill="white"/>
<path d="M49.4867 11.0897C49.0618 10.8376 48.6561 10.5976 48.2425 10.3524C48.259 10.3289 48.2695 10.3071 48.2861 10.2914C48.4667 10.1142 48.6491 9.93973 48.8279 9.76173C48.8681 9.72246 48.8977 9.71461 48.9484 9.7434C49.211 9.89436 49.4771 10.0401 49.7389 10.191C49.7651 10.2067 49.8 10.2556 49.7921 10.2757C49.6961 10.5427 49.594 10.807 49.4858 11.0906L49.4867 11.0897Z" fill="white"/>
<path d="M54.0414 11.0478C53.5877 11.1935 53.1435 11.3366 52.6837 11.4841C52.6366 11.1752 52.5921 10.8846 52.5458 10.5792C52.6392 10.5566 52.7291 10.5356 52.8189 10.5147C53.0545 10.4597 53.2901 10.4065 53.5248 10.3498C53.5877 10.3341 53.6217 10.3471 53.6557 10.4047C53.7613 10.5854 53.8747 10.7616 53.9847 10.9396C54.003 10.9693 54.017 11.0016 54.0414 11.0478Z" fill="white"/>
</svg>
